<svg xmlns="http://www.w3.org/2000/svg" xmlns:xlink="http://www.w3.org/1999/xlink" width="32" height="32" version="1.1" style=""><rect id="backgroundrect" width="100%" height="100%" x="0" y="0" fill="none" stroke="none"/>
    <!-- Generator: Sketch 63.1 (92452) - https://sketch.com -->
    <title>icon-fav-hover</title>
    <desc>Created with Sketch.</desc>
    <defs>
        <path d="M16.277005,9.49708565 C17.2350987,8.53854203 18.5348228,8 19.8900901,8 C21.2453574,8 22.5450815,8.53854203 23.5031752,9.49708565 C24.461458,10.4549185 25,11.7546426 25,13.1099099 C25,14.4651772 24.461458,15.7649013 23.5030448,16.7228646 L16.5555186,23.6703908 C16.2485981,23.9773114 15.7509815,23.9773114 15.444061,23.6703908 L8.49653479,16.7228646 C6.50115505,14.7274848 6.50115507,11.492335 8.49653484,9.49695525 C10.4919146,7.50157548 13.7270644,7.50157545 15.7224442,9.4969552 L15.9997898,9.77430079 L16.277005,9.49708565 Z M15.9997898,22.0032043 L21.5585127,16.4444814 L22.3917176,15.6112765 C23.0553247,14.9479809 23.4281615,14.0481719 23.4281615,13.1099099 C23.4281615,12.1716479 23.0553247,11.271839 22.3917176,10.6085433 C21.728161,9.94467529 20.8283521,9.5718385 19.8900901,9.5718385 C18.9518281,9.5718385 18.0520191,9.94467529 17.388593,10.6084129 L16.5555186,11.4414873 C16.2485981,11.7484078 15.7509815,11.7484078 15.444061,11.4414873 L14.6109866,10.6084129 C13.2294479,9.22687423 10.9895312,9.22687425 9.6079925,10.6084129 C8.22645385,11.9899516 8.22645383,14.2298683 9.60799246,15.611407 L15.9997898,22.0032043 Z" id="path-1"/>
    </defs>
    
<g class="currentLayer" style=""><title>Layer 1</title><g id="GIFOS" stroke="none" stroke-width="1" fill="none" fill-rule="evenodd" class="">
        <g id="00-UI-Kit">
            <g id="icon-fav-hover">
                <rect id="Rectangle-Copy-7" fill="#FFFFFF" fill-rule="nonzero" x="0" y="0" width="32" height="32" rx="6"/>
                <mask id="mask-2" fill="white" transform="translate(858,2777) translate(-858,-2777) ">
                    <use xlink:href="#path-1" id="svg_1"/>
                </mask>
                <use fill="#572EE5" fill-rule="nonzero" xlink:href="#path-1" y="0" x="0" id="svg_2"/>
            </g>
        </g>
    </g><path fill="#562ee7" fill-opacity="1" stroke="#562ee7" stroke-opacity="1" stroke-width="2" stroke-dasharray="none" stroke-linejoin="round" stroke-linecap="butt" stroke-dashoffset="" fill-rule="nonzero" opacity="1" marker-start="" marker-mid="" marker-end="" d="M11,13 C11,11.895027624309392 11.895027624309392,11 13,11 C14.104972375690608,11 15,11.895027624309392 15,13 C15,14.104972375690608 14.104972375690608,15 13,15 C11.895027624309392,15 11,14.104972375690608 11,13 Z" id="svg_3"/><path fill="#562ee7" fill-opacity="1" stroke="#562ee7" stroke-opacity="1" stroke-width="2" stroke-dasharray="none" stroke-linejoin="round" stroke-linecap="butt" stroke-dashoffset="" fill-rule="nonzero" opacity="1" marker-start="" marker-mid="" marker-end="" d="M15,13.5 C15,12.11878453038674 16.11878453038674,11 17.5,11 C18.88121546961326,11 20,12.11878453038674 20,13.5 C20,14.88121546961326 18.88121546961326,16 17.5,16 C16.11878453038674,16 15,14.88121546961326 15,13.5 Z" id="svg_4"/><path fill="#562ee7" fill-opacity="1" stroke="#562ee7" stroke-opacity="1" stroke-width="2" stroke-dasharray="none" stroke-linejoin="round" stroke-linecap="butt" stroke-dashoffset="" fill-rule="nonzero" opacity="1" marker-start="" marker-mid="" marker-end="" d="M12,16.5 C12,15.671270718232044 12.671270718232044,15 13.5,15 C14.328729281767956,15 15,15.671270718232044 15,16.5 C15,17.328729281767956 14.328729281767956,18 13.5,18 C12.671270718232044,18 12,17.328729281767956 12,16.5 Z" id="svg_6"/><path fill="#562ee7" fill-opacity="1" stroke="#562ee7" stroke-opacity="1" stroke-width="2" stroke-dasharray="none" stroke-linejoin="round" stroke-linecap="butt" stroke-dashoffset="" fill-rule="nonzero" opacity="1" marker-start="" marker-mid="" marker-end="" d="M15,17.5 C15,16.671270718232044 15.895027624309392,16 17,16 C18.104972375690608,16 19,16.671270718232044 19,17.5 C19,18.328729281767956 18.104972375690608,19 17,19 C15.895027624309392,19 15,18.328729281767956 15,17.5 Z" id="svg_8"/><path fill="#562ee7" fill-opacity="1" stroke="#562ee7" stroke-opacity="1" stroke-width="2" stroke-dasharray="none" stroke-linejoin="round" stroke-linecap="butt" stroke-dashoffset="" fill-rule="nonzero" opacity="1" marker-start="" marker-mid="" marker-end="" d="M19,14.5 C19,13.671270718232044 19.671270718232044,13 20.5,13 C21.328729281767956,13 22,13.671270718232044 22,14.5 C22,15.328729281767956 21.328729281767956,16 20.5,16 C19.671270718232044,16 19,15.328729281767956 19,14.5 Z" id="svg_10"/><rect fill="#562ee7" stroke="#562ee7" stroke-width="2" stroke-linejoin="round" stroke-dashoffset="" fill-rule="nonzero" id="svg_12" x="18" y="15" width="2" height="3" style="color: rgb(86, 46, 231);"/><rect fill="#562ee7" stroke="#562ee7" stroke-width="2" stroke-linejoin="round" stroke-dashoffset="" fill-rule="nonzero" id="svg_14" x="19" y="16" width="2" height="1" style="color: rgb(86, 46, 231);"/><rect fill="none" stroke-dashoffset="" fill-rule="evenodd" id="svg_5" x="25" y="27" width="3" height="4" style="color: rgb(86, 46, 231);"/><rect fill="#562ee7" stroke="#562ee7" stroke-dashoffset="" fill-rule="evenodd" id="svg_7" x="9" y="10" width="2" height="1" style="color: rgb(86, 46, 231);"/><rect fill="#562ee7" stroke="#562ee7" stroke-dashoffset="" fill-rule="evenodd" id="svg_11" x="13" y="18" width="3" height="2" style="color: rgb(86, 46, 231);"/><rect fill="#562ee7" stroke="#562ee7" stroke-dashoffset="" fill-rule="evenodd" id="svg_15" x="15" y="19" width="3" height="2" style="color: rgb(86, 46, 231);"/><rect fill="#562ee7" stroke="#562ee7" stroke-dashoffset="" fill-rule="evenodd" id="svg_17" x="15" y="20" width="1" height="2" style="color: rgb(86, 46, 231);"/><rect fill="#562ee7" stroke="#562ee7" stroke-dashoffset="" fill-rule="evenodd" id="svg_19" x="11" y="10" width="3" height="2" style="color: rgb(86, 46, 231);"/><rect fill="#562ee7" stroke="#562ee7" stroke-dashoffset="" fill-rule="evenodd" id="svg_9" x="8" y="12" width="2" height="1" style="color: rgb(86, 46, 231);"/><rect fill="#562ee7" stroke="#562ee7" stroke-dashoffset="" fill-rule="evenodd" id="svg_13" x="9" y="11" width="1" height="1" style="color: rgb(86, 46, 231);"/><rect fill="#562ee7" stroke="#562ee7" stroke-dashoffset="" fill-rule="evenodd" id="svg_18" x="9" y="13" width="2" height="1" style="color: rgb(86, 46, 231);"/><rect fill="#562ee7" stroke="#562ee7" stroke-dashoffset="" fill-rule="evenodd" id="svg_21" x="9" y="14" width="2" height="1" style="color: rgb(86, 46, 231);"/><rect fill="#562ee7" stroke="#562ee7" stroke-dashoffset="" fill-rule="evenodd" id="svg_23" x="10" y="15" width="1" height="2" style="color: rgb(86, 46, 231);"/><rect fill="#562ee7" stroke="#562ee7" stroke-dashoffset="" fill-rule="evenodd" id="svg_25" x="18" y="10" width="2" height="1" style="color: rgb(86, 46, 231);"/><rect fill="#562ee7" stroke="#562ee7" stroke-dashoffset="" fill-rule="evenodd" id="svg_27" x="20" y="11" width="2" height="1" style="color: rgb(86, 46, 231);"/><rect fill="#562ee7" stroke="#562ee7" stroke-dashoffset="" fill-rule="evenodd" id="svg_29" x="20" y="9" width="1" height="2" style="color: rgb(86, 46, 231);"/><rect fill="#562ee7" stroke="#562ee7" stroke-dashoffset="" fill-rule="evenodd" id="svg_16" x="21" y="10" width="1" height="0" style="color: rgb(86, 46, 231);"/><rect fill="#562ee7" stroke="#562ee7" stroke-dashoffset="" fill-rule="evenodd" id="svg_22" x="21" y="10" width="1" height="0" style="color: rgb(86, 46, 231);"/><rect fill="#562ee7" stroke="#562ee7" stroke-dashoffset="" fill-rule="evenodd" id="svg_26" x="21" y="9" width="0" height="2" style="color: rgb(86, 46, 231);"/><path fill="#562ee7" fill-opacity="1" stroke="#562ee7" stroke-opacity="1" stroke-width="1" stroke-dasharray="none" stroke-linejoin="miter" stroke-linecap="butt" stroke-dashoffset="" fill-rule="evenodd" opacity="1" marker-start="" marker-mid="" marker-end="" d="M22,11.5 C22,11.223756906077348 22,11 22,11 C22,11 22,11.223756906077348 22,11.5 C22,11.776243093922652 22,12 22,12 C22,12 22,11.776243093922652 22,11.5 Z" id="svg_20"/><path fill="#562ee7" fill-opacity="1" stroke="#562ee7" stroke-opacity="1" stroke-width="1" stroke-dasharray="none" stroke-linejoin="miter" stroke-linecap="butt" stroke-dashoffset="" fill-rule="evenodd" opacity="1" marker-start="" marker-mid="" marker-end="" d="M22,12 C22,11.447513812154696 22.223756906077348,11 22.5,11 C22.776243093922652,11 23,11.447513812154696 23,12 C23,12.552486187845304 22.776243093922652,13 22.5,13 C22.223756906077348,13 22,12.552486187845304 22,12 Z" id="svg_28"/><path fill="#562ee7" fill-opacity="1" stroke="#562ee7" stroke-opacity="1" stroke-width="1" stroke-dasharray="none" stroke-linejoin="miter" stroke-linecap="butt" stroke-dashoffset="" fill-rule="evenodd" opacity="1" marker-start="" marker-mid="" marker-end="" d="M22,13 C22,12.447513812154696 22.223756906077348,12 22.5,12 C22.776243093922652,12 23,12.447513812154696 23,13 C23,13.552486187845304 22.776243093922652,14 22.5,14 C22.223756906077348,14 22,13.552486187845304 22,13 Z" id="svg_31"/><path fill="#562ee7" fill-opacity="1" stroke="#562ee7" stroke-opacity="1" stroke-width="1" stroke-dasharray="none" stroke-linejoin="miter" stroke-linecap="butt" stroke-dashoffset="" fill-rule="evenodd" opacity="1" marker-start="" marker-mid="" marker-end="" d="M22,14.5 C22,14.223756906077348 22.223756906077348,14 22.5,14 C22.776243093922652,14 23,14.223756906077348 23,14.5 C23,14.776243093922652 22.776243093922652,15 22.5,15 C22.223756906077348,15 22,14.776243093922652 22,14.5 Z" id="svg_33"/><path fill="#562ee7" fill-opacity="1" stroke="#562ee7" stroke-opacity="1" stroke-width="1" stroke-dasharray="none" stroke-linejoin="miter" stroke-linecap="butt" stroke-dashoffset="" fill-rule="evenodd" opacity="1" marker-start="" marker-mid="" marker-end="" d="M21,10 C21,9.447513812154696 21.223756906077348,9 21.5,9 C21.776243093922652,9 22,9.447513812154696 22,10 C22,10.552486187845304 21.776243093922652,11 21.5,11 C21.223756906077348,11 21,10.552486187845304 21,10 Z" id="svg_24"/><path fill="#562ee7" fill-opacity="1" stroke="#562ee7" stroke-opacity="1" stroke-width="1" stroke-dasharray="none" stroke-linejoin="miter" stroke-linecap="butt" stroke-dashoffset="" fill-rule="evenodd" opacity="1" marker-start="" marker-mid="" marker-end="" d="M22,13.5 C22,13.223756906077348 22.223756906077348,13 22.5,13 C22.776243093922652,13 23,13.223756906077348 23,13.5 C23,13.776243093922652 22.776243093922652,14 22.5,14 C22.223756906077348,14 22,13.776243093922652 22,13.5 Z" id="svg_32"/></g></svg>